<svg width="529" height="196" viewBox="0 0 529 196" fill="none" xmlns="http://www.w3.org/2000/svg">
<path fill-rule="evenodd" clip-rule="evenodd" d="M71.7493 34.6072C74.7289 36.4024 77.6565 37.2697 79.0307 36.9156C82.4767 36.0278 82.7935 23.4266 80.1272 18.4588C77.4609 13.491 63.7538 11.3257 63.0629 21.1685C62.8231 24.5846 64.2581 27.6333 66.3783 30.1209L62.5767 47.8328L73.6196 47.8328L71.7493 34.6072Z" fill="#57331F"/>
<path fill-rule="evenodd" clip-rule="evenodd" d="M72.3013 22.2556C73.2565 20.8339 74.1735 19.7495 75.3664 19.1198C80.2212 19.1965 80.7896 18.3265 80.7896 15.3944C80.0055 14.8335 77.2387 13.8891 74.1403 13.6234C72.5597 13.1713 70.6873 13.2563 68.8836 14.0105C66.6569 14.642 64.7715 16.0021 63.9387 18.5483C60.9257 23.7458 63.2126 29.1563 66.2945 31.0046C67.1148 30.033 67.8307 29.0915 68.4695 28.1902C67.9564 27.6892 67.6379 26.9898 67.6379 26.2161C67.6379 24.692 68.8739 23.4565 70.3986 23.4565C70.5107 23.4565 70.6212 23.4632 70.7298 23.4762C70.7984 25.3817 71.0807 31.8285 71.8224 34.0678C72.6968 36.7079 77.799 37.3561 79.5786 37.3561C81.1156 37.3561 81.0632 35.9013 81.0256 34.8586C81.0202 34.7084 81.0151 34.5668 81.0151 34.4393C81.0151 34.173 80.6686 34.1737 80.277 34.1744C79.7685 34.1755 79.1841 34.1766 79.1841 33.5934C79.1841 32.9578 80.0629 32.4701 80.8494 32.0338C81.34 31.7616 81.7947 31.5093 81.9775 31.2535C82.5543 30.4464 82.7486 29.3579 81.8784 29.3579C81.4028 29.3579 80.7502 29.632 79.965 29.9618C78.7797 30.4596 77.2924 31.0843 75.6558 31.0843C72.9523 31.0843 72.3093 22.365 72.3013 22.2556Z" fill="#191847"/>
<path fill-rule="evenodd" clip-rule="evenodd" d="M61.6562 86.0063L84.2398 143.142L99.3866 191.446L105.368 191.446L82.2116 86.0063L61.6562 86.0063Z" fill="#3D2216"/>
<path fill-rule="evenodd" clip-rule="evenodd" d="M57.1088 86.0063C56.8683 106.084 53.3612 133.116 52.8009 134.368C52.2406 135.619 14.1147 166.199 14.1147 166.199L18.2343 170.606C18.2343 170.606 63.2193 144.387 65.301 140.89C67.3826 137.393 74.1599 105.215 79.6011 86.0063L57.1088 86.0063Z" fill="#57331F"/>
<path fill-rule="evenodd" clip-rule="evenodd" d="M15.1432 166.491C14.736 165.393 13.5602 164.708 12.4809 165.162C11.7868 165.454 11.0896 165.796 10.7043 166.119C9.75092 166.918 8.18834 168.77 8.18834 168.77C9.11641 169.876 24.8698 188.642 24.8698 188.642C24.8698 188.642 28.0819 187.268 26.8852 185.428C25.6885 183.587 24.9265 182.345 24.9265 182.345L21.4453 170.188C21.2902 169.647 20.7184 169.34 20.1813 169.51L18.7718 169.957C18.7718 169.957 16.7538 169.017 15.9429 168.051C15.6417 167.692 15.3682 167.097 15.1432 166.491Z" fill="#E4E4E4"/>
<path fill-rule="evenodd" clip-rule="evenodd" d="M99.3026 189.139C98.2001 188.745 96.9196 189.205 96.5739 190.324C96.3516 191.043 96.165 191.796 96.165 192.299C96.165 193.543 96.5797 195.93 96.5797 195.93C98.0235 195.93 122.531 195.93 122.531 195.93C122.531 195.93 123.543 192.587 121.363 192.321C119.184 192.054 117.742 191.839 117.742 191.839L106.187 186.69C105.673 186.461 105.071 186.702 104.856 187.222L104.292 188.589C104.292 188.589 102.275 189.53 101.013 189.53C100.544 189.53 99.912 189.357 99.3026 189.139Z" fill="#E4E4E4"/>
<path fill-rule="evenodd" clip-rule="evenodd" d="M76.8404 186.471L105.278 183.386L84.2024 86.0063L58.7319 86.0063L76.8404 186.471Z" fill="#69A1AC"/>
<path fill-rule="evenodd" clip-rule="evenodd" d="M19.9971 159.09L38.6504 181.16C38.6504 181.16 68.1211 148.986 73.0134 139.173C77.9057 129.36 81.8093 86.0063 81.8093 86.0063L53.1342 86.0063C53.1342 86.0063 51.0019 124.147 50.2595 125.921C49.5172 127.696 19.9971 159.09 19.9971 159.09Z" fill="#89C5CC"/>
<path fill-rule="evenodd" clip-rule="evenodd" d="M30.0911 106.661C31.4394 103.927 38.1763 68.7358 38.1763 68.7358L48.2517 68.7736C48.2517 68.7736 36.741 106.051 36.0312 107.81C35.1092 110.094 36.6754 113.413 37.7374 115.663C37.9017 116.011 38.054 116.334 38.1831 116.623C36.7094 117.282 36.0016 116.485 35.2553 115.645C34.4124 114.697 33.5204 113.693 31.4208 114.669C30.6096 115.046 29.842 115.492 29.0921 115.928C26.5016 117.433 24.1219 118.816 20.8845 116.819C20.3713 116.503 19.8089 115.311 21.1678 114.379C24.5532 112.059 29.4319 107.998 30.0911 106.661ZM114.948 92.9493L101.914 80.239L97.5846 87.7267L111.139 95.7145C114.537 101.066 116.533 103.378 117.127 102.651C117.627 102.038 117.398 101.366 117.186 100.748C117.022 100.266 116.868 99.8157 117.079 99.4509C117.561 98.6177 120.282 99.0949 122.845 99.658C125.408 100.221 124.815 98.9627 124.27 98.3059C121.848 96.3518 118.741 94.5663 114.948 92.9493Z" fill="#57331F"/>
<path fill-rule="evenodd" clip-rule="evenodd" d="M68.8778 40.1661L72.8565 39.4839C79.1242 61.6305 111.327 76.7265 113.304 85.0054C114.029 88.0416 111.843 89.5763 112.973 90.5011L107.801 94.2853C106.925 93.264 105.056 95.1323 101.154 93.8254C97.2508 92.5185 68.8778 66.3895 68.8778 40.1661Z" fill="#191847"/>
<path fill-rule="evenodd" clip-rule="evenodd" d="M63.9554 35.6928C61.7517 35.5387 59.8402 37.2003 59.686 39.4041L59.6483 39.9432C52.1605 45.7031 33.6022 62.9147 28.7661 94.9552C28.2581 98.3209 29.1768 100.124 29.9108 101.564C30.413 102.549 30.8287 103.365 30.6422 104.396L37.4105 106.263C37.4105 105.502 38.2635 104.923 39.364 104.177C40.9642 103.091 43.0876 101.65 43.8728 98.7775C44.617 96.0549 45.7068 92.6543 47.0088 88.8714C47.1318 93.8815 48.0823 98.4891 50.1529 102.305C55.3189 111.826 85.1722 101.385 88.2911 91.6719C89.9554 86.4889 87.5939 82.1375 84.4705 76.3825C80.467 69.0057 75.2118 59.3227 75.5795 42.6258C75.606 42.4805 75.6248 42.3323 75.6353 42.1816L75.7511 40.527C75.9052 38.3233 74.2437 36.4119 72.0399 36.2579L63.9554 35.6928Z" fill="#2F3676"/>
<path fill-rule="evenodd" clip-rule="evenodd" d="M175.008 38.4974C177.914 40.2493 180.769 41.0958 182.109 40.7502C185.47 39.8837 185.779 27.5865 183.178 22.7386C180.578 17.8906 167.21 15.7776 166.537 25.3829C166.303 28.7166 167.702 31.6917 169.77 34.1194L166.062 51.4041H176.832L175.008 38.4974Z" fill="#B28B67"/>
<path fill-rule="evenodd" clip-rule="evenodd" d="M187.95 16.0178C187.727 15.2337 187.127 14.5623 186.319 14.3632C186.122 14.3149 185.92 14.2953 185.718 14.3035C185.646 14.3064 185.626 14.3272 185.592 14.2766C185.567 14.2391 185.566 14.1474 185.556 14.1033C185.524 13.9662 185.484 13.8308 185.434 13.6989C185.265 13.249 184.981 12.8508 184.638 12.5154C183.997 11.8879 183.131 11.4549 182.231 11.3765C181.739 11.3337 181.25 11.4137 180.784 11.5739C180.543 11.6569 180.31 11.7602 180.082 11.8744C180.013 11.9087 179.791 12.0771 179.722 12.0662C179.646 12.0541 179.494 11.8653 179.432 11.8179C178.669 11.232 177.726 11.0017 176.775 11.0087C175.701 11.0166 174.668 11.0703 173.773 11.7248C173.583 11.8633 173.403 12.015 173.231 12.1748C173.14 12.2589 173.053 12.3461 172.969 12.437C172.919 12.4918 172.87 12.5479 172.822 12.6054C172.742 12.7032 172.755 12.7353 172.643 12.6671C172.212 12.4053 171.713 12.2828 171.21 12.3446C170.911 12.3814 170.621 12.471 170.345 12.5891C170.251 12.6292 170.034 12.7895 169.933 12.7911C169.834 12.7926 169.62 12.644 169.517 12.6063C168.965 12.4023 168.369 12.352 167.789 12.4462C167.19 12.5435 166.601 12.7826 166.094 13.1129C165.85 13.2718 165.637 13.4479 165.466 13.6842C165.392 13.7862 165.325 13.8941 165.241 13.9887C165.192 14.0441 165.095 14.1009 165.069 14.171C165.085 14.129 164.414 13.8703 164.351 13.8538C164.013 13.7657 163.67 13.7835 163.34 13.8923C162.719 14.0967 162.185 14.5551 161.746 15.0251C161.52 15.2665 161.323 15.5333 161.155 15.8176C161.075 15.9538 161.002 16.0939 160.935 16.2369C160.902 16.3062 160.881 16.3929 160.838 16.4553C160.782 16.5358 160.745 16.5373 160.645 16.5724C160.137 16.7505 159.674 17.0519 159.321 17.4593C158.964 17.8714 158.732 18.3789 158.635 18.9133C158.63 18.9448 158.626 19.0752 158.608 19.0923C158.583 19.1157 158.48 19.1054 158.442 19.1099C158.308 19.1256 158.175 19.149 158.044 19.18C157.802 19.2373 157.567 19.3215 157.344 19.4317C156.476 19.8612 155.856 20.6664 155.552 21.5724C155.233 22.5233 155.239 23.6126 155.62 24.5457C155.681 24.6964 155.754 24.8427 155.84 24.9811C155.893 25.0661 155.91 25.0663 155.876 25.1554C155.838 25.2546 155.768 25.3509 155.723 25.4478C155.574 25.764 155.471 26.0993 155.406 26.4418C155.298 27.0037 155.245 27.5941 155.351 28.1602C155.4 28.4231 155.486 28.6801 155.616 28.9142C155.683 29.0336 155.761 29.1468 155.849 29.2515C155.894 29.3059 155.943 29.3579 155.994 29.4076C156.023 29.436 156.061 29.4609 156.085 29.4926C156.146 29.57 156.158 29.5064 156.127 29.6201C156.084 29.779 155.985 29.9358 155.925 30.0904C155.863 30.2497 155.807 30.4113 155.755 30.5744C155.651 30.9047 155.564 31.241 155.509 31.5831C155.403 32.2398 155.421 32.9396 155.732 33.5424C155.865 33.8002 156.055 34.0264 156.286 34.2023C156.4 34.2884 156.522 34.3626 156.65 34.4235C156.717 34.4548 156.801 34.4683 156.831 34.5322C156.863 34.6008 156.815 34.7372 156.804 34.814C156.709 35.482 156.661 36.1833 156.859 36.838C157.042 37.4409 157.445 37.9732 157.967 38.3257C158.981 39.0094 160.348 38.9708 161.414 38.4235C161.691 38.2808 161.951 38.1036 162.183 37.8947C162.773 38.6893 163.988 38.6642 164.85 38.4378C165.925 38.1557 166.787 37.4083 167.284 36.4262C167.963 37.2534 169.389 36.985 169.86 36.0877C169.975 35.868 170.044 35.626 170.077 35.381C170.095 35.2522 170.084 35.1223 170.097 34.9945C170.114 34.8317 170.223 34.6735 170.285 34.516C170.407 34.2094 170.483 33.8927 170.486 33.5621C170.487 33.3894 170.466 33.2212 170.449 33.0499C170.434 32.8958 170.477 32.7521 170.501 32.6C170.226 32.6454 169.89 32.571 169.63 32.4911C169.376 32.4127 169.137 32.2061 168.957 32.0174C168.539 31.5793 168.284 31.0049 168.11 30.4333C167.727 29.1787 167.884 27.6734 169.146 26.9849C169.733 26.6641 171.494 26.6651 172.194 26.8237C172.93 26.9904 173.764 28.6148 173.805 28.7675C173.831 28.862 173.818 28.979 173.905 29.0419C174.096 29.1804 174.41 28.9401 174.551 28.8215C174.794 28.6169 174.967 28.3446 175.117 28.0686C175.444 27.4673 175.707 26.8224 175.893 26.1641C176.037 25.6566 176.128 25.1333 176.316 24.6387C176.502 24.1465 176.797 23.7067 177.254 23.4279C177.751 23.1246 178.322 22.9649 178.868 22.7743C179.409 22.5854 179.941 22.3546 180.361 21.9538C180.453 21.8656 180.543 21.772 180.617 21.6682C180.676 21.5863 180.734 21.4295 180.823 21.3776C180.962 21.2968 181.165 21.5069 181.285 21.5832C181.877 21.9596 182.372 22.4845 182.77 23.058C183.167 23.6284 183.492 24.1772 183.756 24.8141C183.953 25.2864 184.075 25.8914 184.42 26.2785C184.574 26.4513 185.718 26.5559 186.089 26.405C186.46 26.2541 186.875 25.8623 187 25.6167C187.127 25.3654 187.157 25.0893 187.103 24.8141C187.071 24.6522 187.006 24.501 186.97 24.342C186.94 24.2084 186.912 24.0822 186.847 23.9598C186.724 23.728 186.514 23.5613 186.26 23.4917C186.524 23.2481 186.743 22.9567 186.894 22.631C187.052 22.2926 187.185 21.8811 187.223 21.5097C187.254 21.2081 187.206 20.8955 187.041 20.6363C186.868 20.3643 186.561 20.1869 186.296 20.0173C186.701 19.6999 187.048 19.314 187.333 18.8867C187.888 18.0558 188.232 17.0084 187.95 16.0178Z" fill="#191847"/>
<path fill-rule="evenodd" clip-rule="evenodd" d="M162.473 88.658L184.049 145.762L199.171 187.851H207.794L187.007 88.658L162.473 88.658Z" fill="#1F28CF"/>
<path fill-rule="evenodd" clip-rule="evenodd" d="M157.141 88.658C156.906 108.252 157.076 134.631 156.529 135.853C155.983 137.074 122.537 163.684 122.537 163.684L126.981 171.244C126.981 171.244 166.69 145.631 168.72 142.218C170.75 138.805 180.949 107.403 186.256 88.658H157.141Z" fill="#2B44FF"/>
<path fill-rule="evenodd" clip-rule="evenodd" d="M114.717 168.772L122.224 163.057L128.281 170.277C128.98 178.442 133.686 188.591 133.686 188.591L132.311 189.745L121.351 176.68L118.289 171.633L117.601 172.21L114.717 168.772Z" fill="#191847"/>
<path fill-rule="evenodd" clip-rule="evenodd" d="M198.371 195.93L198.82 186.504L208.243 186.504C214.945 191.217 225.743 194.135 225.743 194.135V195.93H208.692L202.858 195.032V195.93H198.371Z" fill="#191847"/>
<path fill-rule="evenodd" clip-rule="evenodd" d="M218.78 68.4268L201.063 70.8441L204.242 78.7837L218.618 73.0829C224.814 73.6944 227.81 73.5472 227.607 72.6413C227.435 71.8775 226.776 71.6469 226.169 71.4345C225.697 71.269 225.256 71.1146 225.101 70.7277C224.747 69.8443 226.761 68.0131 228.747 66.3577C230.732 64.7023 229.399 64.3978 228.561 64.4222C225.585 65.1202 222.324 66.455 218.78 68.4268ZM132.587 111.956C133.902 109.288 145.408 74.946 145.408 74.946L155.234 74.9829C155.234 74.9829 139.072 111.361 138.38 113.077C137.481 115.306 139.008 118.545 140.044 120.741C140.204 121.081 140.353 121.396 140.478 121.678C139.041 122.321 138.351 121.544 137.623 120.724C136.801 119.798 135.931 118.818 133.884 119.771C133.093 120.139 132.344 120.575 131.613 121C129.086 122.469 126.766 123.818 123.608 121.87C123.108 121.561 122.559 120.398 123.885 119.489C127.186 117.224 131.944 113.261 132.587 111.956Z" fill="#997659"/>
<path fill-rule="evenodd" clip-rule="evenodd" d="M172.322 43.7744L180.016 44.287C181.911 61.4332 192.231 72.2633 215.338 68.5969L218.408 90.6773C196.811 93.4692 177.87 84.8205 173.989 61.404C172.984 55.3422 172.19 49.0338 172.322 43.7744Z" fill="#AFB9C5"/>
<path fill-rule="evenodd" clip-rule="evenodd" d="M133.935 107.509C139.277 79.0818 150.551 57.0888 167.757 41.5303H168.496H168.521L168.527 41.5374L180.183 44.2077C180.183 58.2132 183.298 68.678 186.293 78.739C187.587 83.0838 188.858 87.3533 189.846 91.8001H158.365C157.921 96.8948 157.649 102.131 157.507 107.509H133.935Z" fill="#C5CFD6"/>
<path fill-rule="evenodd" clip-rule="evenodd" d="M158.364 91.8001C159.267 81.4277 160.879 71.6428 163.544 62.4453C162.96 72.2812 162.798 84.4831 164.763 91.8001H158.364Z" fill="black" fill-opacity="0.1"/>
<path fill-rule="evenodd" clip-rule="evenodd" d="M274.971 42.2223C277.808 43.9327 280.596 44.7592 281.904 44.4218C285.185 43.5758 285.487 31.5695 282.948 26.8362C280.41 22.1029 267.358 20.0398 266.7 29.418C266.472 32.6728 267.838 35.5776 269.857 37.9478L266.237 54.8237H276.752L274.971 42.2223Z" fill="#B28B67"/>
<path fill-rule="evenodd" clip-rule="evenodd" d="M276.955 21.3807C275.569 21.1534 271.838 20.9971 271.15 20.9972C270.71 20.9972 270.234 21.0977 269.973 20.6938C269.76 20.3631 269.838 19.8038 269.774 19.42C269.701 18.9741 269.596 18.534 269.489 18.095C269.187 16.8459 268.73 15.6574 268.091 14.5416C266.891 12.4483 265.134 10.8086 262.915 9.85442C260.465 8.80089 257.692 8.55965 255.057 8.77334C252.237 9.00197 249.684 9.93322 247.021 10.8096C244.483 11.6447 241.826 11.9734 239.172 11.5656C236.498 11.1547 234.477 9.7051 232.222 8.32921C229.913 6.92063 227.274 5.99937 224.545 6.21114C221.997 6.4089 219.648 7.46122 217.541 8.86697C215.57 10.1822 213.944 11.7646 213.025 13.9918C212.037 16.3875 212.038 19.0172 213.663 21.1344C216.018 24.2034 220.389 24.9971 224.026 24.9182C226.129 24.8727 228.195 24.4886 230.181 23.7899C232.83 22.858 235.119 21.2786 237.597 19.9972C238.76 19.3958 239.962 18.902 241.221 18.5462C242.444 18.2009 243.648 18.0425 244.755 18.7812C245.926 19.5627 246.976 20.3304 248.315 20.8197C249.6 21.289 250.962 21.5515 252.331 21.5409C254.995 21.5204 257.621 20.6901 260.208 20.134C262.318 19.6806 264.576 19.2287 266.727 19.6645C267.624 19.8464 268.936 20.222 269.26 21.155C263.803 22.1442 261.66 28.894 263.199 33.849C264.029 36.5234 269.019 39.6497 270.96 38.2437C272.189 37.353 271.443 36.1837 270.96 35.4117C270.035 33.9334 269.718 32.0345 271.43 31.0053C272.906 30.1176 274.458 32.2256 274.488 32.2233C274.893 32.1913 278.4 30.2079 280.815 27.3138C283.198 27.455 283.56 25.8834 282.991 24.598C282.422 23.3126 278.87 21.695 276.955 21.3807Z" fill="#191847"/>
<path fill-rule="evenodd" clip-rule="evenodd" d="M263.608 91.1953L296.163 145.634L320.569 191.658H325.826L284.933 91.1953L263.608 91.1953Z" fill="#997659"/>
<path fill-rule="evenodd" clip-rule="evenodd" d="M319.706 189.495C318.6 189.111 317.318 189.567 316.979 190.688C316.781 191.342 316.62 192.015 316.62 192.471C316.62 193.656 317.014 195.93 317.014 195.93C318.389 195.93 341.725 195.93 341.725 195.93C341.725 195.93 342.688 192.745 340.613 192.491C338.538 192.237 337.165 192.033 337.165 192.033L326.208 187.147C325.693 186.917 325.091 187.158 324.876 187.679L324.358 188.936C324.358 188.936 322.437 189.832 321.236 189.832C320.815 189.832 320.255 189.685 319.706 189.495Z" fill="#E4E4E4"/>
<path fill-rule="evenodd" clip-rule="evenodd" d="M313.791 184.288L323.929 181.22C323.929 181.22 317.266 161.298 307.597 137.373C297.928 113.447 286.828 91.1953 286.828 91.1953H258.195C258.195 91.1953 270.535 119.343 284.36 142.347C298.184 165.351 313.791 184.288 313.791 184.288Z" fill="#DB2721"/>
<path fill-rule="evenodd" clip-rule="evenodd" d="M261.469 91.1953C258.397 110.326 252.47 134.767 251.911 135.521C251.538 136.024 238.116 140.522 211.644 149.017L212.78 153.654C244.347 149.098 260.981 145.564 262.68 143.05C265.229 139.28 277.956 109.497 282.885 91.1953H261.469Z" fill="#B28B67"/>
<path fill-rule="evenodd" clip-rule="evenodd" d="M220.949 145.009L222.949 152.477C246.56 154.548 261.027 153.052 266.35 147.987C271.673 142.922 277.739 123.992 284.55 91.1953H257.246C252.931 118.051 250.519 132.043 250.009 133.17C249.5 134.298 239.813 138.244 220.949 145.009Z" fill="#FF4133"/>
<path fill-rule="evenodd" clip-rule="evenodd" d="M213.386 149.394C213.573 148.238 212.901 147.055 211.738 146.916C211.059 146.834 210.369 146.792 209.92 146.872C208.753 147.077 206.583 147.861 206.583 147.861C206.821 149.215 210.874 172.202 210.874 172.202C210.874 172.202 214.177 172.598 214.066 170.51C213.956 168.421 213.919 167.034 213.919 167.034L216.827 155.391C216.964 154.845 216.622 154.294 216.072 154.173L214.745 153.88C214.745 153.88 213.528 152.144 213.32 150.961C213.246 150.546 213.294 149.968 213.386 149.394Z" fill="#E4E4E4"/>
<path fill-rule="evenodd" clip-rule="evenodd" d="M313.717 96.3478L301.306 84.2375L297.184 91.3718L310.089 98.9825C313.325 104.081 315.226 106.284 315.791 105.592C316.267 105.008 316.049 104.368 315.848 103.778C315.691 103.319 315.545 102.89 315.746 102.543C316.204 101.749 318.795 102.203 321.236 102.74C323.676 103.276 323.112 102.077 322.593 101.452C320.286 99.5898 317.328 97.8885 313.717 96.3478ZM240.563 113.943C241.847 111.337 246.219 85.9455 246.219 85.9455L255.375 85.9815C255.375 85.9815 246.895 113.362 246.219 115.037C245.341 117.213 246.833 120.375 247.844 122.519C248 122.851 248.145 123.159 248.268 123.434C246.865 124.062 246.191 123.303 245.48 122.503C244.678 121.599 243.828 120.642 241.829 121.573C241.057 121.932 240.326 122.357 239.612 122.772C237.145 124.206 234.879 125.524 231.797 123.621C231.308 123.32 230.773 122.184 232.067 121.297C235.29 119.086 239.935 115.216 240.563 113.943Z" fill="#B28B67"/>
<path fill-rule="evenodd" clip-rule="evenodd" d="M272.237 47.5187L276.025 46.8687C282.548 63.1663 293.935 77.9747 310.188 91.2939L297.907 106.218C281.656 87.2534 271.639 67.6869 272.237 47.5187Z" fill="#191847"/>
<path fill-rule="evenodd" clip-rule="evenodd" d="M255.723 95.1394H289.457C289.457 95.1394 277.734 66.6277 277.734 46.6987L267.558 45.1821C259.56 58.0476 257.302 73.8876 255.723 95.1394Z" fill="#DDE3E9"/>
<path fill-rule="evenodd" clip-rule="evenodd" d="M240.389 109.601C244.078 67.9679 267.334 45.1821 267.334 45.1821L267.342 45.1893C267.344 45.1869 267.345 45.1845 267.346 45.1821H268.011C269.203 45.2232 271.643 45.3301 271.643 45.3301L274.101 52.3588C274.492 65.2133 278.658 104.169 278.658 104.169H256.577C256.614 105.955 256.698 107.767 256.831 109.601H240.389Z" fill="#2F3676"/>
<path fill-rule="evenodd" clip-rule="evenodd" d="M256.581 104.342C256.404 96.5637 257.094 89.2602 258.245 82.6509C258.847 90.4936 260.105 99.9307 262.732 104.342H256.581Z" fill="black" fill-opacity="0.1"/>
<path fill-rule="evenodd" clip-rule="evenodd" d="M261.467 90.7571L272.371 85.6865V90.7571H261.467Z" fill="white" fill-opacity="0.2"/>
<path fill-rule="evenodd" clip-rule="evenodd" d="M363.258 43.7895C366.395 44.6952 369.259 44.7715 370.418 44.1164C373.325 42.4739 370.548 30.9612 366.924 27.1004C363.3 23.2395 350.351 24.6028 352.119 33.703C352.732 36.8614 354.774 39.2797 357.3 41.0224L358.162 58.0193L368.169 55.3379L363.258 43.7895Z" fill="#915B3C"/>
<path fill-rule="evenodd" clip-rule="evenodd" d="M368.411 28.8715C368.155 28.3136 367.739 27.7296 367.395 27.2291C366.952 26.5839 366.399 26.0435 365.817 25.5503C364.721 24.6218 363.497 23.8462 362.222 23.272C359.892 22.2233 357.217 21.975 354.902 22.9086C353.734 23.38 352.684 24.1556 351.892 25.191C351.176 26.1265 350.582 27.3803 349.433 27.7666C348.184 28.1869 346.718 27.3763 345.513 26.9559C344.155 26.482 342.779 26.24 341.377 26.3784C339.028 26.6104 337.118 27.9377 336.062 30.201C334.939 32.6096 334.512 35.8146 336.294 38.1297C336.625 38.5601 336.994 38.8989 337.457 39.1377C337.881 39.3566 338.49 39.5472 338.761 40.006C339.049 40.4937 338.793 41.2912 338.75 41.8124C338.689 42.559 338.68 43.3279 338.95 44.0494C339.393 45.2343 340.467 46.1908 341.488 46.7742C342.526 47.3678 343.661 47.5637 344.797 47.4897C345.556 47.4403 346.313 47.3223 347.031 47.0723C347.387 46.9482 347.681 46.7612 348.011 46.5866C348.332 46.4167 348.548 46.4564 348.889 46.5665C350.472 47.0782 352.014 47.0273 353.537 46.4799C354.823 46.018 356.253 45.2929 357.084 44.1036C358.007 42.7827 357.613 41.4079 356.937 40.0073C357.274 40.075 358.12 39.9461 357.471 39.4904C357.214 39.3099 356.822 39.3137 356.535 39.2438C356.202 39.1623 355.852 39.0355 355.557 38.8362C354.364 38.0312 354.712 35.6495 355.763 34.9908C357.325 34.0122 358.351 36.3187 359.733 36.6164C360.527 36.7875 361.126 36.1021 361.516 35.4619C362.037 34.6043 362.277 33.5891 362.447 32.5756C362.588 31.741 362.702 30.9023 362.85 30.0696C362.919 29.6808 363.217 28.554 362.831 28.2387C363.985 27.6689 365.478 27.8121 366.706 28.1957C367.213 28.3543 367.625 28.5686 367.986 28.9918C368.064 29.0825 368.255 29.3626 368.393 29.339C368.652 29.295 368.475 29.0116 368.411 28.8715Z" fill="#191847"/>
<path fill-rule="evenodd" clip-rule="evenodd" d="M347.137 135.04C347.137 135.04 362.67 139.389 373.941 139.389C385.211 139.389 394.877 132.691 394.877 132.691C394.877 132.691 379.676 128.227 369.84 128.227C360.003 128.227 347.137 135.04 347.137 135.04Z" fill="#1F28CF"/>
<path fill-rule="evenodd" clip-rule="evenodd" d="M382.905 143.568C382.805 143.418 382.721 143.254 382.654 143.077C381.27 139.413 359.098 99.8815 356.889 92.6541H381.852C383.531 98.1491 391.09 132.633 392.154 139.514C395.51 150.366 402.421 185.514 403.303 187.949C404.231 190.511 399.009 193.179 397.618 190.03C395.404 185.019 390.128 171.155 387.779 162.689C385.577 154.753 383.784 147.613 382.905 143.568Z" fill="#784931"/>
<path fill-rule="evenodd" clip-rule="evenodd" d="M362.482 148.394C352.346 150.959 315.268 155.595 312.724 156.323C310.106 157.071 307.811 151.67 311.046 150.5C316.194 148.639 330.379 144.338 338.979 142.583C345.897 141.171 352.209 140.019 356.447 139.344C356.088 127.428 354.447 98.8305 355.523 92.6541H377.61C376.578 98.5769 367.858 141.794 366.237 146.119C365.723 147.664 364.188 148.346 362.482 148.394Z" fill="#915B3C"/>
<path fill-rule="evenodd" clip-rule="evenodd" d="M311.717 151.367C311.899 150.211 311.229 149.028 310.067 148.891C309.408 148.813 308.742 148.774 308.306 148.851C307.156 149.054 305.017 149.827 305.017 149.827C305.253 151.162 309.245 173.829 309.245 173.829C309.245 173.829 312.5 174.219 312.391 172.16C312.283 170.101 312.246 168.732 312.246 168.732L315.108 157.266C315.245 156.719 314.903 156.168 314.353 156.047L313.059 155.762C313.059 155.762 311.861 154.05 311.655 152.883C311.585 152.481 311.629 151.924 311.717 151.367Z" fill="#E4E4E4"/>
<path fill-rule="evenodd" clip-rule="evenodd" d="M398.381 189.595C397.273 189.214 395.99 189.669 395.653 190.791C395.462 191.427 395.309 192.076 395.309 192.519C395.309 193.688 395.698 195.93 395.698 195.93C397.052 195.93 420.045 195.93 420.045 195.93C420.045 195.93 420.994 192.789 418.95 192.539C416.905 192.289 415.552 192.087 415.552 192.087L404.77 187.275C404.256 187.046 403.653 187.286 403.438 187.808L402.933 189.033C402.933 189.033 401.041 189.917 399.857 189.917C399.45 189.917 398.912 189.778 398.381 189.595Z" fill="#E4E4E4"/>
<path fill-rule="evenodd" clip-rule="evenodd" d="M355.594 92.6541C355.594 92.6541 370.194 88.4729 383.222 92.6541C386.243 106.455 393.586 111.932 394.877 133.091C380.2 140.391 362.069 127.885 346.96 135.004C342.644 125.046 348.687 101.065 355.594 92.6541Z" fill="#2B44FF"/>
<path fill-rule="evenodd" clip-rule="evenodd" d="M391.95 53.511L378.621 64.2028L385.102 69.0965L394.091 57.3788C399.465 54.8247 401.847 53.2293 401.237 52.5928C400.723 52.0561 400.071 52.1928 399.471 52.3188C399.003 52.4169 398.566 52.5085 398.25 52.2701C397.529 51.7255 398.284 49.2438 399.102 46.9194C399.919 44.5951 398.679 45.0035 398.005 45.436C395.908 47.4698 393.89 50.1614 391.95 53.511ZM408.788 62.2463L402.935 66.9535L404.452 73.3995C404.452 73.3995 408.115 69.6263 411.549 67.9815C415.927 65.8842 417.617 64.5742 419.361 61.3072C420.295 59.5593 420.772 56.292 419.449 55.4887C418.941 55.1805 417.464 56.3805 415.957 57.6048C414.808 58.5379 413.642 59.4852 412.874 59.7898C411.84 60.1999 411.721 58.7863 411.625 57.6567C411.556 56.8462 411.5 56.1818 411.127 56.4425C409.236 56.8096 408.788 62.2463 408.788 62.2463Z" fill="#915B3C"/>
<path fill-rule="evenodd" clip-rule="evenodd" d="M371.117 63.6676C376.276 62.7016 382.975 60.3936 389.505 54.4241L393.53 60.362C389.346 66.2957 382.944 71.6937 376.676 72.618C371.737 73.3465 368.176 67.8385 371.117 63.6676Z" fill="#2026A2"/>
<path fill-rule="evenodd" clip-rule="evenodd" d="M364.965 110.295C359.939 110.52 355.32 110.727 352.737 111.726C348.015 102.496 349.424 95.912 350.725 89.8339C351.509 86.1707 352.254 82.6912 351.593 78.9272C349.669 67.9658 355.485 49.5458 356.779 49.3178L357.15 49.2523L367.401 47.4448L368.575 47.2379C370.298 53.9271 373.843 60.8734 377.412 67.8644C378.245 69.497 379.08 71.132 379.893 72.7668C388.809 73.2031 406.649 63.0662 406.649 63.0662C406.649 63.0662 413.209 72.1705 413.593 76.4723C403.535 84.2195 394.494 88.4769 386.701 90.027C387.769 94.6301 387.983 99.1514 386.798 103.526C385.209 109.388 374.373 109.874 364.965 110.295Z" fill="#1F28CF"/>
<path fill-rule="evenodd" clip-rule="evenodd" d="M467.314 48.1576C470.043 49.802 472.725 50.5965 473.984 50.2721C477.14 49.4588 477.43 37.9162 474.988 33.3657C472.546 28.8152 459.99 26.8318 459.357 35.8478C459.137 38.9769 460.452 41.7695 462.394 44.0482L458.912 60.2723H469.027L467.314 48.1576Z" fill="#B28B67"/>
<path fill-rule="evenodd" clip-rule="evenodd" d="M479.469 27.0573C479.26 26.3213 478.696 25.6912 477.937 25.5042C477.753 25.4589 477.563 25.4406 477.373 25.4482C477.305 25.4509 477.286 25.4705 477.254 25.423C477.231 25.3878 477.23 25.3017 477.221 25.2604C477.191 25.1316 477.153 25.0045 477.106 24.8807C476.947 24.4584 476.68 24.0847 476.359 23.7699C475.757 23.1809 474.943 22.7744 474.098 22.7009C473.635 22.6606 473.176 22.7358 472.739 22.8862C472.513 22.964 472.293 23.061 472.079 23.1682C472.015 23.2004 471.806 23.3584 471.742 23.3482C471.67 23.3369 471.527 23.1597 471.469 23.1152C470.752 22.5652 469.866 22.349 468.973 22.3556C467.965 22.3631 466.994 22.4134 466.153 23.0277C465.975 23.1578 465.806 23.3002 465.644 23.4501C465.559 23.5291 465.477 23.611 465.398 23.6963C465.351 23.7477 465.305 23.8004 465.261 23.8544C465.185 23.9461 465.197 23.9762 465.092 23.9122C464.687 23.6665 464.218 23.5516 463.746 23.6096C463.466 23.6441 463.193 23.7282 462.934 23.839C462.845 23.8767 462.641 24.0271 462.547 24.0286C462.454 24.03 462.253 23.8906 462.156 23.8552C461.638 23.6637 461.078 23.6165 460.533 23.705C459.97 23.7963 459.417 24.0206 458.941 24.3307C458.711 24.4799 458.511 24.6451 458.351 24.8669C458.281 24.9627 458.219 25.0639 458.14 25.1527C458.094 25.2047 458.003 25.2581 457.978 25.3239C457.993 25.2845 457.363 25.0416 457.303 25.0261C456.987 24.9434 456.664 24.9602 456.354 25.0622C455.771 25.2541 455.269 25.6844 454.857 26.1255C454.645 26.3521 454.46 26.6026 454.302 26.8695C454.227 26.9973 454.158 27.1288 454.095 27.263C454.064 27.3281 454.044 27.4094 454.004 27.468C453.952 27.5436 453.917 27.545 453.823 27.5779C453.346 27.7451 452.911 28.028 452.579 28.4104C452.244 28.7972 452.027 29.2735 451.935 29.7752C451.93 29.8047 451.927 29.9272 451.909 29.9432C451.886 29.9652 451.79 29.9555 451.753 29.9597C451.628 29.9745 451.503 29.9964 451.38 30.0256C451.153 30.0793 450.931 30.1584 450.722 30.2618C449.907 30.6649 449.324 31.4207 449.039 32.2712C448.74 33.1637 448.745 34.1862 449.103 35.062C449.161 35.2035 449.229 35.3408 449.31 35.4707C449.36 35.5504 449.376 35.5506 449.343 35.6343C449.308 35.7273 449.242 35.8178 449.199 35.9087C449.06 36.2055 448.963 36.5203 448.902 36.8418C448.801 37.3692 448.751 37.9234 448.85 38.4547C448.897 38.7015 448.977 38.9427 449.1 39.1624C449.162 39.2745 449.235 39.3808 449.318 39.4791C449.361 39.5301 449.406 39.5789 449.454 39.6256C449.481 39.6522 449.517 39.6756 449.54 39.7054C449.597 39.778 449.609 39.7183 449.58 39.825C449.539 39.9741 449.446 40.1213 449.39 40.2664C449.331 40.416 449.279 40.5676 449.23 40.7207C449.133 41.0308 449.05 41.3464 448.998 41.6675C448.899 42.284 448.917 42.9408 449.208 43.5066C449.333 43.7486 449.512 43.9609 449.729 44.126C449.835 44.2068 449.95 44.2765 450.071 44.3337C450.133 44.3631 450.212 44.3757 450.24 44.4357C450.271 44.5001 450.226 44.6282 450.215 44.7002C450.126 45.3272 450.081 45.9855 450.267 46.6C450.439 47.1659 450.817 47.6656 451.308 47.9964C452.26 48.6382 453.544 48.602 454.545 48.0882C454.806 47.9543 455.05 47.788 455.267 47.5919C455.822 48.3378 456.962 48.3142 457.773 48.1016C458.782 47.8369 459.592 47.1353 460.058 46.2135C460.697 46.99 462.036 46.738 462.478 45.8957C462.586 45.6896 462.651 45.4624 462.682 45.2325C462.699 45.1116 462.688 44.9896 462.701 44.8697C462.717 44.7168 462.819 44.5683 462.878 44.4205C462.992 44.1327 463.063 43.8355 463.066 43.5251C463.068 43.3631 463.047 43.2051 463.032 43.0444C463.018 42.8997 463.058 42.7649 463.081 42.6221C462.822 42.6647 462.506 42.5949 462.263 42.5198C462.023 42.4462 461.799 42.2523 461.63 42.0752C461.238 41.664 460.998 41.1249 460.834 40.5883C460.475 39.4107 460.622 37.9978 461.807 37.3515C462.359 37.0504 464.013 37.0514 464.67 37.2002C465.362 37.3566 466.145 38.8814 466.184 39.0247C466.208 39.1134 466.196 39.2232 466.277 39.2823C466.456 39.4123 466.752 39.1868 466.884 39.0755C467.112 38.8834 467.275 38.6278 467.416 38.3687C467.723 37.8043 467.97 37.199 468.145 36.5811C468.28 36.1047 468.366 35.6135 468.542 35.1493C468.717 34.6873 468.993 34.2744 469.423 34.0128C469.89 33.7281 470.426 33.5782 470.939 33.3993C471.447 33.222 471.947 33.0053 472.341 32.6291C472.428 32.5464 472.512 32.4585 472.582 32.3611C472.637 32.2842 472.691 32.137 472.775 32.0883C472.906 32.0124 473.096 32.2096 473.209 32.2812C473.766 32.6345 474.23 33.1273 474.604 33.6656C474.977 34.201 475.282 34.7161 475.531 35.3139C475.715 35.7573 475.83 36.3251 476.154 36.6884C476.298 36.8507 477.373 36.9488 477.721 36.8072C478.07 36.6656 478.46 36.2978 478.577 36.0673C478.696 35.8313 478.725 35.5722 478.674 35.3139C478.644 35.162 478.582 35.02 478.549 34.8708C478.521 34.7454 478.495 34.6269 478.434 34.5121C478.318 34.2944 478.12 34.138 477.882 34.0726C478.13 33.844 478.336 33.5705 478.478 33.2648C478.626 32.9472 478.751 32.5609 478.786 32.2123C478.815 31.9291 478.771 31.6358 478.616 31.3924C478.453 31.1372 478.165 30.9707 477.916 30.8114C478.296 30.5136 478.622 30.1513 478.89 29.7502C479.412 28.9703 479.734 27.9872 479.469 27.0573Z" fill="#191847"/>
<path fill-rule="evenodd" clip-rule="evenodd" d="M455.54 95.24L475.805 148.84L490.009 188.347H498.109L478.583 95.24L455.54 95.24Z" fill="#1F28CF"/>
<path fill-rule="evenodd" clip-rule="evenodd" d="M450.532 95.24C450.311 113.631 450.471 138.392 449.957 139.539C449.444 140.685 418.029 165.663 418.029 165.663L422.204 172.759C422.204 172.759 459.501 148.717 461.407 145.514C463.314 142.31 472.894 112.835 477.878 95.24H450.532Z" fill="#2B44FF"/>
<path fill-rule="evenodd" clip-rule="evenodd" d="M410.685 170.438L417.736 165.074L423.425 171.851C424.081 179.515 428.502 189.041 428.502 189.041L427.211 190.125L416.916 177.861L414.04 173.124L413.394 173.665L410.685 170.438Z" fill="#191847"/>
<path fill-rule="evenodd" clip-rule="evenodd" d="M489.258 195.93L489.679 187.083L498.53 187.083C504.825 191.506 514.968 194.245 514.968 194.245V195.93H498.952L493.473 195.087V195.93H489.258Z" fill="#191847"/>
<path fill-rule="evenodd" clip-rule="evenodd" d="M504.717 99.7199L491.273 89.8516L488.301 97.1952L501.614 102.714C505.379 107.135 507.485 108.978 507.93 108.243C508.306 107.623 508.012 107.043 507.742 106.508C507.531 106.092 507.334 105.704 507.479 105.346C507.81 104.529 510.339 104.615 512.736 104.799C515.132 104.983 514.434 103.917 513.856 103.391C511.41 101.927 508.363 100.703 504.717 99.7199ZM434.213 117.108C435.448 114.603 439.654 90.1921 439.654 90.1921L448.462 90.2268C448.462 90.2268 440.304 116.55 439.654 118.16C438.809 120.252 440.244 123.292 441.217 125.354C441.367 125.673 441.507 125.968 441.625 126.233C440.275 126.837 439.627 126.107 438.943 125.338C438.171 124.469 437.354 123.549 435.431 124.443C434.688 124.789 433.985 125.198 433.298 125.597C430.925 126.975 428.745 128.242 425.78 126.413C425.309 126.123 424.794 125.031 426.039 124.178C429.14 122.053 433.609 118.333 434.213 117.108Z" fill="#B28B67"/>
<path fill-rule="evenodd" clip-rule="evenodd" d="M464.684 53.2496L468.328 52.6248C481.85 64.3012 487.404 86.733 503.979 98.616L499.99 103.559C471.235 100 464.108 72.6389 464.684 53.2496Z" fill="#E87613"/>
<path fill-rule="evenodd" clip-rule="evenodd" d="M448.796 99.031C448.796 99.031 470.716 99.031 481.044 99.031C482.517 99.031 482.24 96.9042 482.027 95.8309C479.568 83.4446 469.972 70.0928 469.972 52.4612L460.67 51.0032C452.976 63.3718 450.316 78.6 448.796 99.031Z" fill="#DDE3E9"/>
<path fill-rule="evenodd" clip-rule="evenodd" d="M445.171 107.878C443.721 111.357 442.3 114.393 440.961 116.725H434.045C433.301 92.6772 442.409 74.1729 450.032 63.0155C448.34 62.8945 446.812 62.1866 445.846 60.4448C442.447 54.3128 443.674 50.9367 447.308 49.8269C449.306 49.2167 451.185 49.6332 453.434 50.1318C455.274 50.5398 457.363 51.0028 459.967 51.0031C459.968 51.0031 459.969 51.0031 459.97 51.0031C460.222 51.0031 460.452 51.02 460.66 51.0523L463.747 51.2284C463.747 51.2284 476.279 93.6827 470.659 107.878H445.171Z" fill="#FF9B21"/>
<path fill-rule="evenodd" clip-rule="evenodd" d="M445.17 107.878C447.072 103.313 449.022 97.9846 450.898 92.4817C451.597 98.5418 452.76 104.629 454.697 107.878H445.17Z" fill="black" fill-opacity="0.1"/>
</svg>
